<?xml version="1.0" standalone="no"?>
<!DOCTYPE svg PUBLIC "-//W3C//DTD SVG 1.1//EN" "http://www.w3.org/Graphics/SVG/1.1/DTD/svg11.dtd" >
<svg xmlns="http://www.w3.org/2000/svg" xmlns:xlink="http://www.w3.org/1999/xlink" version="1.1">
<metadata></metadata>
<defs>
<font id="demoderegular" horiz-adv-x="1497" >
<font-face units-per-em="2048" ascent="1536" descent="-512" />
<missing-glyph horiz-adv-x="716" />
<glyph horiz-adv-x="0" />
<glyph unicode="&#xd;" horiz-adv-x="716" />
<glyph horiz-adv-x="0" />
<glyph horiz-adv-x="0" />
<glyph unicode=" "  horiz-adv-x="716" />
<glyph unicode="&#x09;" horiz-adv-x="716" />
<glyph unicode="&#xa0;" horiz-adv-x="716" />
<glyph unicode="!" horiz-adv-x="665" d="M190 483h50v820l233 -232v-819h-49zM193 309q14 -10 28 -10q16 0 28.5 12.5t12.5 28.5t-8 27l229 -232q13 -12 13 -26q0 -16 -13.5 -29.5t-29.5 -13.5t-29 12z" />
<glyph unicode="0" d="M164 799q0 94 36 176t97 143.5t143 97t176 35.5q66 0 129.5 -19.5t119 -55t98.5 -86t67 -111.5q-88 41 -184 41q-90 0 -172 -37t-143.5 -98.5t-98.5 -143.5t-37 -172q0 -96 41 -184q-61 27 -111.5 70t-86 97t-55 116.5t-19.5 130.5zM262 444q72 -72 163 -109.5t191 -37.5 q104 0 195.5 40t159 107.5t107.5 158.5t40 196q0 98 -37 188t-104 162q66 -66 132.5 -127t120.5 -129t88 -146t34 -178q0 -104 -39 -196t-107.5 -160t-160 -107.5t-195.5 -39.5q-100 0 -180 34.5t-148.5 89t-131 122t-128.5 132.5z" />
<glyph unicode="1" horiz-adv-x="862" d="M168 1014h61l119 192v-375zM348 297h51v1003l234 -231v-1003h-49z" />
<glyph unicode="2" horiz-adv-x="1214" d="M176 1001h51q0 51 19.5 97.5t53.5 80t79 53t98 19.5q51 0 95 -17t78 -49t53.5 -75t23.5 -92h-18q-51 0 -96.5 -19.5t-79 -53.5t-53 -79t-19.5 -96h-53zM180 299h598v49l232 -233v-49h-596zM252 348l438 440q41 41 64.5 96.5t23.5 114.5q0 57 -20.5 110.5t-57.5 94.5 l218 -217q43 -43 68.5 -100.5t25.5 -120.5q0 -66 -31 -122t-75 -106.5t-95 -97.5t-94 -92h-465z" />
<glyph unicode="3" horiz-adv-x="1093" d="M156 602l233 -233v-21q-100 10 -166.5 81t-66.5 173zM188 1077h50q0 72 51 123t123 51t122 -51t50 -121q0 -74 -51.5 -124t-122.5 -50v-49zM203 381q41 -41 95 -62.5t114 -21.5q63 0 118.5 24.5t96.5 66.5t64.5 97.5t23.5 118.5q0 94 -52.5 171t-140.5 112q53 29 82 80 t29 110q0 88 -58 152l222 -223q35 -35 52 -72t17 -86q0 -59 -29.5 -112.5t-82.5 -82.5q88 -35 141 -111.5t53 -170.5q0 -63 -24.5 -118.5t-65.5 -97.5t-97 -65.5t-118 -23.5q-127 0 -223 96zM410 856q102 0 173.5 -65.5t80.5 -167.5l-21 2q-59 59 -116.5 115.5t-116.5 115.5 z" />
<glyph unicode="4" horiz-adv-x="1132" d="M154 659h415v-231h-184zM215 711l354 503v-473l-20 -30h-334zM569 297h52v362h149v52h-149v589l231 -231v-442l152 -148v-51h-152v-362h-49z" />
<glyph unicode="5" horiz-adv-x="1122" d="M174 602l234 -233v-21q-100 10 -167 81t-67 173zM188 856h242q49 0 94 -18.5t79 -50t55.5 -74.5t25.5 -92q-8 2 -45 3t-82 1t-85 -1t-52 -1zM223 377q41 -41 94.5 -60.5t110.5 -19.5q61 0 117.5 23.5t98.5 64.5t66.5 96.5t24.5 118.5q0 111 -73 201l208 -209 q47 -47 72 -103t25 -122q0 -61 -23.5 -115.5t-65.5 -96.5t-96.5 -65.5t-115.5 -23.5q-131 0 -228 96zM238 905v346h407v49l234 -233v-49h-410v-115q-25 4 -54.5 5t-61 0t-61.5 -2t-54 -1z" />
<glyph unicode="6" horiz-adv-x="1208" d="M180 641q0 59 23.5 111.5t63.5 92.5t92.5 63.5t111.5 23.5q51 0 99 -17.5t87 -49t66 -76t35 -95.5q-29 6 -56 6q-59 0 -111 -23.5t-92 -63.5t-63.5 -92t-23.5 -111q0 -29 6 -56q-53 8 -96 35t-75 65t-49.5 86t-17.5 101zM197 842q12 94 47 168.5t93 127t145 82t204 31.5 l236 -233q-82 0 -153.5 -14.5t-143.5 -57.5q-74 35 -154 35q-82 0 -154.5 -37t-119.5 -102zM233 397q47 -47 110 -73.5t128 -26.5q72 0 134.5 26.5t108.5 73.5t72.5 108.5t26.5 133.5q0 66 -23.5 126t-66.5 107l217 -217q51 -51 79 -113t28 -134t-27 -134.5t-73 -108.5 t-108.5 -72.5t-131.5 -26.5q-66 0 -131.5 25.5t-112.5 72.5z" />
<glyph unicode="7" horiz-adv-x="1218" d="M145 1251h654l-109 -231h-311zM416 299l448 952v52l236 -236v-47l-451 -954z" />
<glyph unicode="8" horiz-adv-x="1120" d="M162 604q0 51 20.5 97.5t55 80t81 54t99.5 20.5q49 0 93 -17.5t78 -49t55.5 -74.5t25.5 -92h-19q-55 0 -104 -21.5t-84 -59.5t-53.5 -88.5t-14.5 -105.5q-49 4 -92 26.5t-73.5 56.5t-49 79t-18.5 94zM203 385q41 -41 97 -64.5t116 -23.5q61 0 117.5 23.5t97.5 64.5 t65.5 95.5t24.5 117.5q0 98 -51.5 176t-143.5 113q53 29 84 79t31 111q0 82 -53 146l215 -215q33 -33 51 -74t18 -88q0 -59 -29.5 -110.5t-82.5 -80.5q86 -35 140 -112.5t54 -173.5q0 -63 -24.5 -118.5t-65.5 -96.5t-97 -64.5t-118 -23.5q-127 0 -223 96zM246 1077 q0 72 48 123t120 51q74 0 125 -50t51 -124q0 -76 -52 -123t-122 -47q-72 0 -121 50.5t-49 119.5z" />
<glyph unicode="9" horiz-adv-x="1161" d="M150 961q0 59 23.5 111t63 92t92 63.5t111.5 23.5q51 0 100.5 -17t87.5 -48t64.5 -75t34.5 -95q-14 4 -26.5 4h-26.5q-59 0 -112.5 -22.5t-93.5 -62.5t-63.5 -93.5t-23.5 -112.5q0 -29 6 -55q-53 8 -96 34.5t-75 64.5t-49 86t-17 102zM217 702q45 -41 105.5 -62.5 t119.5 -21.5q82 0 155 37t120 103q0 -37 -18.5 -89.5t-47 -102.5t-63.5 -90t-68 -54q-12 6 -28.5 17.5t-48 40t-85 80.5t-141.5 142zM225 299q156 0 263.5 50t173 138t94 209t28.5 265q0 66 -25.5 128t-72.5 109q57 -57 113.5 -112.5t113.5 -112.5q49 -49 74 -111.5 t29 -132.5q4 -113 -23.5 -230.5t-94.5 -214t-175.5 -157.5t-263.5 -61z" />
<glyph unicode="?" horiz-adv-x="1130" d="M137 991h49q0 53 20.5 101.5t55.5 84t82 56t100 20.5q51 0 95.5 -18t79 -50t56 -75t27.5 -92h-20q-55 0 -102.5 -19.5t-83 -54.5t-56 -82t-20.5 -102h-49zM391 311q12 -12 31 -12q16 0 28.5 12.5t12.5 28.5t-12 29l231 -232v-2q12 -12 12 -29q0 -16 -12 -28t-29 -12 q-16 0 -28 12zM395 481h49q0 57 22.5 99.5t57.5 75t75 63.5t75 68.5t57.5 87t22.5 118.5q0 59 -21.5 113.5t-60.5 97.5l223 -225q43 -43 66.5 -100.5t23.5 -116.5q0 -72 -22.5 -121t-57.5 -86t-73.5 -67.5t-73.5 -63.5t-57.5 -75t-22.5 -101h-51z" />
<glyph unicode="A" horiz-adv-x="1316" d="M117 299h55l129 332h457l90 -232h-316l-129 -333h-51zM322 682l208 539l160 -416l-47 -123h-321zM553 1303l231 -234l390 -1003h-54l-233 233h55z" />
<glyph unicode="B" horiz-adv-x="1312" d="M170 299h485q57 0 105.5 21.5t84.5 59.5t55.5 88t19.5 105q0 80 -43 149t-115 103q66 33 99.5 93.5t33.5 132.5q0 41 -11.5 78.5t-35.5 70.5l209 -205q39 -39 55 -86t16 -100q0 -66 -32.5 -121t-87.5 -88l60.5 -60.5t46 -57t28.5 -66.5t10 -86q0 -53 -21.5 -101.5 t-58.5 -84t-85 -57t-101 -21.5h-484zM170 799q94 0 195.5 1t195.5 1h82q49 0 91 -19.5t72 -51.5t47 -75t17 -90h-467zM170 1251h475q92 0 146.5 -61.5t54.5 -149.5q0 -14 -2 -20h-441z" />
<glyph unicode="C" horiz-adv-x="1409" d="M139 809q0 92 36 174t96.5 143.5t141.5 97.5t173 36q113 0 212 -51.5t165 -141.5h59q-16 25 -32.5 48.5t-37.5 43.5q78 -78 160 -155.5t141 -169.5h-57q-43 45 -82 80.5t-81 61t-91 39t-115 13.5q-94 0 -177 -35t-145.5 -96t-98 -144t-35.5 -178q0 -90 39 -180 q-123 55 -197 167t-74 247zM246 444q70 -66 160 -101.5t186 -35.5q131 0 247.5 64.5t182.5 179.5l231 -234q-66 -115 -180.5 -178t-245.5 -63q-100 0 -179 32.5t-146.5 86t-129 119t-126.5 130.5z" />
<glyph unicode="D" horiz-adv-x="1327" d="M137 297h309q141 0 258 58.5t191 181.5q74 121 74 260q0 98 -37 188t-103 160q68 -68 134.5 -129.5t118 -128t83 -145.5t31.5 -181q0 -117 -51 -224.5t-150 -176.5q-45 -31 -87 -50.5t-86 -28.5t-90 -12t-99 -3h-262zM188 346v903h279q68 0 130 -18.5t116.5 -54t97.5 -86 t70 -111.5q-84 39 -183 39h-278v-672h-232z" />
<glyph unicode="E" horiz-adv-x="1290" d="M184 299h643v49l234 -233v-49h-643zM233 348v451l594 2v49l234 -234v-49h-166h-131.5h-131t-165.5 -2v-217h-234zM233 850v401h594v52l234 -234v-49h-594v-170h-234z" />
<glyph unicode="F" horiz-adv-x="1257" d="M182 297h49v500l613 2v49l233 -234v-49l-2 2l-610 -2v-499h-49zM231 850v401h613v49l233 -231v-51h-612v-168h-234z" />
<glyph unicode="G" horiz-adv-x="1476" d="M147 801q0 94 36 176t97.5 143.5t143.5 96t176 34.5q111 0 208 -50t161 -142h61q-16 25 -32.5 47t-36.5 43q33 -33 75.5 -71t84.5 -80t80 -85t61 -86h-60q-43 45 -83 81t-82 60.5t-92 38t-114 13.5q-92 0 -175 -35t-144 -96.5t-97 -143t-36 -174.5q0 -100 39 -184 q-61 27 -111.5 70t-85.5 97t-54.5 116.5t-19.5 130.5zM244 444v2q68 -72 158 -109.5t188 -37.5t188 34t159 95t113 146t50 186l231 -232q-8 -98 -50 -183t-109.5 -146.5t-155.5 -97t-187 -35.5q-98 0 -178 34.5t-148.5 90t-131 123t-127.5 130.5zM561 711h479 q-29 -137 -125 -234h-120z" />
<glyph unicode="H" horiz-adv-x="1306" d="M158 299h49v500h641v-232q-111 0 -204 -1t-204 -1v-499h-49zM207 850v453l233 -234v-219h-233zM848 299h49v1004l233 -234v-1003h-49z" />
<glyph unicode="I" horiz-adv-x="636" d="M178 297h49v1006l232 -234v-1003h-49z" />
<glyph unicode="J" horiz-adv-x="858" d="M147 338q51 -41 117 -41q37 0 73 15.5t63.5 42t45 63.5t17.5 78v807l231 -232v-809q0 -41 -15 -76.5t-43 -62.5t-63.5 -42t-76.5 -15q-76 0 -136 59z" />
<glyph unicode="K" horiz-adv-x="1030" d="M180 299h51v492l232 -302v-423h-49zM231 866v437l183 -183zM264 827l363 476l231 -232l-358 -481l420 -524h-76l-234 233h78z" />
<glyph unicode="L" horiz-adv-x="1087" d="M176 299h514v51l232 -233v-51h-514zM227 350v953l232 -232v-721h-232z" />
<glyph unicode="M" horiz-adv-x="1439" d="M176 299h51v909l234 -358v-784h-51zM227 1303q55 -45 113.5 -103.5t112 -124t98.5 -134.5t78 -134h2l-41 -64zM590 651l362 557v-590l-131 -200zM952 299h49v1004l234 -234v-1003h-51z" />
<glyph unicode="N" horiz-adv-x="1402" d="M170 299h49v922l234 -295v-860h-50zM219 1303q113 -96 210 -212t189 -231l332 -420v-61zM950 299h49v1004l234 -234v-1003h-49z" />
<glyph unicode="O" d="M164 799q0 94 36 176t97 143.5t143 97t176 35.5q66 0 129.5 -19.5t119 -55t98.5 -86t67 -111.5q-88 41 -184 41q-90 0 -172 -37t-143.5 -98.5t-98.5 -143.5t-37 -172q0 -96 41 -184q-61 27 -111.5 70t-86 97t-55 116.5t-19.5 130.5zM262 444q72 -72 163 -109.5t191 -37.5 q104 0 195.5 40t159 107.5t107.5 158.5t40 196q0 98 -37 188t-104 162q66 -66 132.5 -127t120.5 -129t88 -146t34 -178q0 -104 -39 -196t-107.5 -160t-160 -107.5t-195.5 -39.5q-100 0 -180 34.5t-148.5 89t-131 122t-128.5 132.5z" />
<glyph unicode="P" horiz-adv-x="1253" d="M166 297h51v502h404q53 0 97 20.5t75.5 54t49 79.5t17.5 98q0 84 -47 149l39 -39t69.5 -68.5t66.5 -65.5t34 -32l2 -4q35 -45 52.5 -84t17.5 -98q0 -51 -18.5 -95t-51.5 -77t-77 -51.5t-95 -18.5h-209h-67.5t-29.5 -1t-29.5 -1h-67.5v-499h-50zM223 1251h387 q92 0 146.5 -61.5t54.5 -149.5q0 -14 -2 -22h-352z" />
<glyph unicode="Q" d="M168 799q0 94 36 177t97 144.5t143 97t177 35.5q147 0 248.5 -73.5t166.5 -198.5q-88 41 -184 41q-92 0 -174 -37t-143.5 -98.5t-97.5 -143t-36 -174.5q0 -92 39 -182q-125 53 -198.5 165t-73.5 247zM272 440q70 -70 162 -106.5t191 -36.5q88 0 168 31l-19 47l234 -234 l18 -45q-81 -30 -168 -30h-6q-98 0 -191.5 37.5t-162.5 109.5zM782 580l127 -127l-8 -9l25 -43q92 72 144 176.5t52 221.5q0 96 -36.5 189t-104.5 161q66 -66 132.5 -127t120.5 -129t88 -148t34 -180q0 -117 -52.5 -220t-144.5 -175l-104 102l114 -209h-71l-232 232h70z" />
<glyph unicode="R" horiz-adv-x="1327" d="M162 297h49v500q68 0 105.5 1t69.5 1h70h105q35 -59 70 -116.5t69 -115.5l-256 -2v-499h-51zM207 1249h461q92 0 146 -60.5t54 -148.5q0 -6 -1 -12t-1 -10h-428zM618 799h60q53 0 97 19.5t77 53t50.5 79.5t17.5 98q0 84 -50 149l209 -205q41 -39 56.5 -86t15.5 -100 q0 -51 -18.5 -95t-51 -76t-76.5 -50.5t-96 -18.5h-57l299 -501h-57q-59 57 -116.5 114.5t-117.5 116.5h60q-74 127 -151 251t-151 251z" />
<glyph unicode="S" horiz-adv-x="1058" d="M141 543l203 -205q-80 8 -134 68.5t-69 136.5zM190 356q41 -37 94.5 -56t106.5 -19q63 0 118.5 23.5t96.5 65.5t65.5 97t24.5 117q0 57 -20.5 111.5t-59.5 95.5l207 -205q43 -43 66.5 -100.5t23.5 -116.5q0 -66 -23.5 -121t-64.5 -96t-96 -65t-119 -24q-127 0 -217 91z M219 1065q0 72 50 121t122 49q55 0 100.5 -30.5t63.5 -84.5h51q-8 25 -19.5 48.5t-27.5 41.5l215 -215l10 -12q41 -41 56 -94h-54l-116 117q-31 10 -60 10q-57 0 -105 -36t-61 -93q-12 2 -25 3t-26 1q-72 0 -123 50t-51 124zM254 889q29 -27 64.5 -38t74.5 -11 q53 0 99.5 -20.5t81 -55.5t54 -81t19.5 -99q0 -39 -12 -76z" />
<glyph unicode="T" horiz-adv-x="1204" d="M100 1251h357v-231h-123zM508 299v952h356l234 -231h-359v-954z" />
<glyph unicode="U" horiz-adv-x="1366" d="M197 696v607l231 -234v-606q0 -54 14 -101q-53 16 -98 49t-78 76t-51 97.5t-18 111.5zM264 414q53 -55 125 -85t156 -30q82 0 154.5 31.5t127 85t86 126t31.5 154.5v607l232 -234v-606q0 -90 -34 -163t-89.5 -125t-128 -80.5t-148.5 -28.5t-151.5 29.5t-137.5 94.5z" />
<glyph unicode="V" horiz-adv-x="1263" d="M135 1303l232 -234l196 -506l-71 -184l-209 539l-19 51zM469 299h45l391 1004l232 -234l-389 -1003h-46z" />
<glyph unicode="W" horiz-adv-x="1914" d="M154 1303l233 -234l197 -506l-72 -184l-211 539l-18 51zM487 297h48l292 760l162 -416l-223 -575h-43zM856 1124l231 -231l127 -330l-71 -184l-209 539l-19 51zM1122 297h45l389 1006l232 -234l-389 -1003h-45z" />
<glyph unicode="X" horiz-adv-x="1214" d="M139 297h60l301 457l194 -293l-262 -395h-61zM199 1300l233 -231l109 -164l-41 -59zM530 799l332 501l234 -231l-332 -502l332 -501h-62l-231 231h59z" />
<glyph unicode="Y" horiz-adv-x="1038" d="M129 1300l231 -233l64 -115l-51 -94zM346 297h51v500v4l275 499l233 -233l-274 -502v-499h-51z" />
<glyph unicode="Z" horiz-adv-x="1329" d="M121 297h829v51l234 -233v-49h-832zM121 1251h764l-199 -233h-334zM184 348q199 221 386.5 448.5t379.5 454.5v49l234 -231v-51l-570 -670h-430z" />
<glyph unicode="a" horiz-adv-x="1316" d="M117 299h55l129 332h457l90 -232h-316l-129 -333h-51zM322 682l208 539l160 -416l-47 -123h-321zM553 1303l231 -234l390 -1003h-54l-233 233h55z" />
<glyph unicode="b" horiz-adv-x="1312" d="M170 299h485q57 0 105.5 21.5t84.5 59.5t55.5 88t19.5 105q0 80 -43 149t-115 103q66 33 99.5 93.5t33.5 132.5q0 41 -11.5 78.5t-35.5 70.5l209 -205q39 -39 55 -86t16 -100q0 -66 -32.5 -121t-87.5 -88l60.5 -60.5t46 -57t28.5 -66.5t10 -86q0 -53 -21.5 -101.5 t-58.5 -84t-85 -57t-101 -21.5h-484zM170 799q94 0 195.5 1t195.5 1h82q49 0 91 -19.5t72 -51.5t47 -75t17 -90h-467zM170 1251h475q92 0 146.5 -61.5t54.5 -149.5q0 -14 -2 -20h-441z" />
<glyph unicode="c" horiz-adv-x="1409" d="M139 809q0 92 36 174t96.5 143.5t141.5 97.5t173 36q113 0 212 -51.5t165 -141.5h59q-16 25 -32.5 48.5t-37.5 43.5q78 -78 160 -155.5t141 -169.5h-57q-43 45 -82 80.5t-81 61t-91 39t-115 13.5q-94 0 -177 -35t-145.5 -96t-98 -144t-35.5 -178q0 -90 39 -180 q-123 55 -197 167t-74 247zM246 444q70 -66 160 -101.5t186 -35.5q131 0 247.5 64.5t182.5 179.5l231 -234q-66 -115 -180.5 -178t-245.5 -63q-100 0 -179 32.5t-146.5 86t-129 119t-126.5 130.5z" />
<glyph unicode="d" horiz-adv-x="1327" d="M137 297h309q141 0 258 58.5t191 181.5q74 121 74 260q0 98 -37 188t-103 160q68 -68 134.5 -129.5t118 -128t83 -145.5t31.5 -181q0 -117 -51 -224.5t-150 -176.5q-45 -31 -87 -50.5t-86 -28.5t-90 -12t-99 -3h-262zM188 346v903h279q68 0 130 -18.5t116.5 -54t97.5 -86 t70 -111.5q-84 39 -183 39h-278v-672h-232z" />
<glyph unicode="e" horiz-adv-x="1290" d="M184 299h643v49l234 -233v-49h-643zM233 348v451l594 2v49l234 -234v-49h-166h-131.5h-131t-165.5 -2v-217h-234zM233 850v401h594v52l234 -234v-49h-594v-170h-234z" />
<glyph unicode="f" horiz-adv-x="1257" d="M182 297h49v500l613 2v49l233 -234v-49l-2 2l-610 -2v-499h-49zM231 850v401h613v49l233 -231v-51h-612v-168h-234z" />
<glyph unicode="g" horiz-adv-x="1476" d="M147 801q0 94 36 176t97.5 143.5t143.5 96t176 34.5q111 0 208 -50t161 -142h61q-16 25 -32.5 47t-36.5 43q33 -33 75.5 -71t84.5 -80t80 -85t61 -86h-60q-43 45 -83 81t-82 60.5t-92 38t-114 13.5q-92 0 -175 -35t-144 -96.5t-97 -143t-36 -174.5q0 -100 39 -184 q-61 27 -111.5 70t-85.5 97t-54.5 116.5t-19.5 130.5zM244 444v2q68 -72 158 -109.5t188 -37.5t188 34t159 95t113 146t50 186l231 -232q-8 -98 -50 -183t-109.5 -146.5t-155.5 -97t-187 -35.5q-98 0 -178 34.5t-148.5 90t-131 123t-127.5 130.5zM561 711h479 q-29 -137 -125 -234h-120z" />
<glyph unicode="h" horiz-adv-x="1306" d="M158 299h49v500h641v-232q-111 0 -204 -1t-204 -1v-499h-49zM207 850v453l233 -234v-219h-233zM848 299h49v1004l233 -234v-1003h-49z" />
<glyph unicode="i" horiz-adv-x="636" d="M178 297h49v1006l232 -234v-1003h-49z" />
<glyph unicode="j" horiz-adv-x="858" d="M147 338q51 -41 117 -41q37 0 73 15.5t63.5 42t45 63.5t17.5 78v807l231 -232v-809q0 -41 -15 -76.5t-43 -62.5t-63.5 -42t-76.5 -15q-76 0 -136 59z" />
<glyph unicode="k" horiz-adv-x="1030" d="M180 299h51v492l232 -302v-423h-49zM231 866v437l183 -183zM264 827l363 476l231 -232l-358 -481l420 -524h-76l-234 233h78z" />
<glyph unicode="l" horiz-adv-x="1087" d="M176 299h514v51l232 -233v-51h-514zM227 350v953l232 -232v-721h-232z" />
<glyph unicode="m" horiz-adv-x="1439" d="M176 299h51v909l234 -358v-784h-51zM227 1303q55 -45 113.5 -103.5t112 -124t98.5 -134.5t78 -134h2l-41 -64zM590 651l362 557v-590l-131 -200zM952 299h49v1004l234 -234v-1003h-51z" />
<glyph unicode="n" horiz-adv-x="1402" d="M170 299h49v922l234 -295v-860h-50zM219 1303q113 -96 210 -212t189 -231l332 -420v-61zM950 299h49v1004l234 -234v-1003h-49z" />
<glyph unicode="o" d="M164 799q0 94 36 176t97 143.5t143 97t176 35.5q66 0 129.5 -19.5t119 -55t98.5 -86t67 -111.5q-88 41 -184 41q-90 0 -172 -37t-143.5 -98.5t-98.5 -143.5t-37 -172q0 -96 41 -184q-61 27 -111.5 70t-86 97t-55 116.5t-19.5 130.5zM262 444q72 -72 163 -109.5t191 -37.5 q104 0 195.5 40t159 107.5t107.5 158.5t40 196q0 98 -37 188t-104 162q66 -66 132.5 -127t120.5 -129t88 -146t34 -178q0 -104 -39 -196t-107.5 -160t-160 -107.5t-195.5 -39.5q-100 0 -180 34.5t-148.5 89t-131 122t-128.5 132.5z" />
<glyph unicode="p" horiz-adv-x="1253" d="M166 297h51v502h404q53 0 97 20.5t75.5 54t49 79.5t17.5 98q0 84 -47 149l39 -39t69.5 -68.5t66.5 -65.5t34 -32l2 -4q35 -45 52.5 -84t17.5 -98q0 -51 -18.5 -95t-51.5 -77t-77 -51.5t-95 -18.5h-209h-67.5t-29.5 -1t-29.5 -1h-67.5v-499h-50zM223 1251h387 q92 0 146.5 -61.5t54.5 -149.5q0 -14 -2 -22h-352z" />
<glyph unicode="q" d="M168 799q0 94 36 177t97 144.5t143 97t177 35.5q147 0 248.5 -73.5t166.5 -198.5q-88 41 -184 41q-92 0 -174 -37t-143.5 -98.5t-97.5 -143t-36 -174.5q0 -92 39 -182q-125 53 -198.5 165t-73.5 247zM272 440q70 -70 162 -106.5t191 -36.5q88 0 168 31l-19 47l234 -234 l18 -45q-81 -30 -168 -30h-6q-98 0 -191.5 37.5t-162.5 109.5zM782 580l127 -127l-8 -9l25 -43q92 72 144 176.5t52 221.5q0 96 -36.5 189t-104.5 161q66 -66 132.5 -127t120.5 -129t88 -148t34 -180q0 -117 -52.5 -220t-144.5 -175l-104 102l114 -209h-71l-232 232h70z" />
<glyph unicode="r" horiz-adv-x="1327" d="M162 297h49v500q68 0 105.5 1t69.5 1h70h105q35 -59 70 -116.5t69 -115.5l-256 -2v-499h-51zM207 1249h461q92 0 146 -60.5t54 -148.5q0 -6 -1 -12t-1 -10h-428zM618 799h60q53 0 97 19.5t77 53t50.5 79.5t17.5 98q0 84 -50 149l209 -205q41 -39 56.5 -86t15.5 -100 q0 -51 -18.5 -95t-51 -76t-76.5 -50.5t-96 -18.5h-57l299 -501h-57q-59 57 -116.5 114.5t-117.5 116.5h60q-74 127 -151 251t-151 251z" />
<glyph unicode="s" horiz-adv-x="1058" d="M141 543l203 -205q-80 8 -134 68.5t-69 136.5zM190 356q41 -37 94.5 -56t106.5 -19q63 0 118.5 23.5t96.5 65.5t65.5 97t24.5 117q0 57 -20.5 111.5t-59.5 95.5l207 -205q43 -43 66.5 -100.5t23.5 -116.5q0 -66 -23.5 -121t-64.5 -96t-96 -65t-119 -24q-127 0 -217 91z M219 1065q0 72 50 121t122 49q55 0 100.5 -30.5t63.5 -84.5h51q-8 25 -19.5 48.5t-27.5 41.5l215 -215l10 -12q41 -41 56 -94h-54l-116 117q-31 10 -60 10q-57 0 -105 -36t-61 -93q-12 2 -25 3t-26 1q-72 0 -123 50t-51 124zM254 889q29 -27 64.5 -38t74.5 -11 q53 0 99.5 -20.5t81 -55.5t54 -81t19.5 -99q0 -39 -12 -76z" />
<glyph unicode="t" horiz-adv-x="1204" d="M100 1251h357v-231h-123zM508 299v952h356l234 -231h-359v-954z" />
<glyph unicode="u" horiz-adv-x="1366" d="M197 696v607l231 -234v-606q0 -54 14 -101q-53 16 -98 49t-78 76t-51 97.5t-18 111.5zM264 414q53 -55 125 -85t156 -30q82 0 154.5 31.5t127 85t86 126t31.5 154.5v607l232 -234v-606q0 -90 -34 -163t-89.5 -125t-128 -80.5t-148.5 -28.5t-151.5 29.5t-137.5 94.5z" />
<glyph unicode="v" horiz-adv-x="1263" d="M135 1303l232 -234l196 -506l-71 -184l-209 539l-19 51zM469 299h45l391 1004l232 -234l-389 -1003h-46z" />
<glyph unicode="w" horiz-adv-x="1914" d="M154 1303l233 -234l197 -506l-72 -184l-211 539l-18 51zM487 297h48l292 760l162 -416l-223 -575h-43zM856 1124l231 -231l127 -330l-71 -184l-209 539l-19 51zM1122 297h45l389 1006l232 -234l-389 -1003h-45z" />
<glyph unicode="x" horiz-adv-x="1214" d="M139 297h60l301 457l194 -293l-262 -395h-61zM199 1300l233 -231l109 -164l-41 -59zM530 799l332 501l234 -231l-332 -502l332 -501h-62l-231 231h59z" />
<glyph unicode="y" horiz-adv-x="1038" d="M129 1300l231 -233l64 -115l-51 -94zM346 297h51v500v4l275 499l233 -233l-274 -502v-499h-51z" />
<glyph unicode="z" horiz-adv-x="1329" d="M121 297h829v51l234 -233v-49h-832zM121 1251h764l-199 -233h-334zM184 348q199 221 386.5 448.5t379.5 454.5v49l234 -231v-51l-570 -670h-430z" />
<glyph unicode="&#x2000;" horiz-adv-x="682" />
<glyph unicode="&#x2001;" horiz-adv-x="1365" />
<glyph unicode="&#x2002;" horiz-adv-x="682" />
<glyph unicode="&#x2003;" horiz-adv-x="1365" />
<glyph unicode="&#x2004;" horiz-adv-x="455" />
<glyph unicode="&#x2005;" horiz-adv-x="341" />
<glyph unicode="&#x2006;" horiz-adv-x="227" />
<glyph unicode="&#x2007;" horiz-adv-x="227" />
<glyph unicode="&#x2008;" horiz-adv-x="170" />
<glyph unicode="&#x2009;" horiz-adv-x="273" />
<glyph unicode="&#x200a;" horiz-adv-x="75" />
<glyph unicode="&#x202f;" horiz-adv-x="273" />
<glyph unicode="&#x205f;" horiz-adv-x="341" />
<glyph unicode="&#x25fc;" horiz-adv-x="1300" d="M0 0v1300h1300v-1300h-1300z" />
</font>
</defs>
</svg>
