<?xml version="1.0" standalone="no"?>
<!DOCTYPE svg PUBLIC "-//W3C//DTD SVG 1.1//EN" "http://www.w3.org/Graphics/SVG/1.1/DTD/svg11.dtd" >
<svg xmlns="http://www.w3.org/2000/svg" xmlns:xlink="http://www.w3.org/1999/xlink" version="1.1">
<metadata></metadata>
<defs>
<font id="laquatsaregular" horiz-adv-x="1014" >
<font-face units-per-em="2048" ascent="1638" descent="-410" />
<missing-glyph horiz-adv-x="508" />
<glyph unicode="&#xd;" horiz-adv-x="508" />
<glyph horiz-adv-x="0" />
<glyph horiz-adv-x="0" />
<glyph unicode=" "  horiz-adv-x="508" />
<glyph unicode="&#x09;" horiz-adv-x="508" />
<glyph unicode="&#xa0;" horiz-adv-x="508" />
<glyph unicode="!" horiz-adv-x="265" d="M38 93q0 37 26 63t65 26t65 -27q27 -27 27 -65q0 -37 -26 -63t-66 -26q-38 0 -65 27q-26 27 -26 65zM49 310v1120h159v-1119z" />
<glyph unicode="&#x22;" horiz-adv-x="546" />
<glyph unicode="#" horiz-adv-x="1350" />
<glyph unicode="$" horiz-adv-x="780" />
<glyph unicode="%" horiz-adv-x="1169" />
<glyph unicode="&#x26;" horiz-adv-x="714" />
<glyph unicode="'" horiz-adv-x="342" />
<glyph unicode="(" horiz-adv-x="594" />
<glyph unicode=")" horiz-adv-x="594" />
<glyph unicode="*" horiz-adv-x="539" />
<glyph unicode="+" horiz-adv-x="1106" />
<glyph unicode="," horiz-adv-x="301" />
<glyph unicode="-" horiz-adv-x="645" />
<glyph unicode="." horiz-adv-x="273" />
<glyph unicode="/" horiz-adv-x="1020" />
<glyph unicode="0" horiz-adv-x="1246" />
<glyph unicode="1" horiz-adv-x="404" />
<glyph unicode="2" horiz-adv-x="1043" />
<glyph unicode="3" horiz-adv-x="978" />
<glyph unicode="4" horiz-adv-x="1001" />
<glyph unicode="5" horiz-adv-x="998" />
<glyph unicode="6" horiz-adv-x="1073" />
<glyph unicode="7" horiz-adv-x="898" />
<glyph unicode="8" horiz-adv-x="933" />
<glyph unicode="9" horiz-adv-x="1049" />
<glyph unicode=":" horiz-adv-x="351" />
<glyph unicode=";" horiz-adv-x="351" />
<glyph unicode="&#x3c;" horiz-adv-x="1011" />
<glyph unicode="=" horiz-adv-x="666" />
<glyph unicode="&#x3e;" horiz-adv-x="1011" />
<glyph unicode="?" horiz-adv-x="799" />
<glyph unicode="@" horiz-adv-x="1342" />
<glyph unicode="A" horiz-adv-x="1218" d="M0 1l608 1428l608 -1428h-170l-150 344q-162 -1 -306 -119q-116 -95 -279 -95q-39 0 -81 5l-60 -135h-170zM285 276q16 -2 32 -1q127 0 258 98q148 111 265 115l-92 205q-60 161 -139 345q-79 -184 -141 -345z" />
<glyph unicode="B" horiz-adv-x="889" d="M1 1v1432h385q71 0 140 -28q67 -29 119 -80q49 -52 76 -112q27 -63 27 -135q-5 -85 -39.5 -148.5t-96.5 -114.5q83 -34 155 -96q66 -66 90 -137q31 -74 31 -160q0 -87 -31 -161q-32 -77 -91 -136q-59 -60 -136 -93q-76 -31 -158 -31h-471zM155 839q91 -4 156 -4 q26 0 49 1q14 1 26 1l5 1q49 6 78 20q35 15 70 51q30 32 47 71q16 39 16 85q0 45 -16 84q-17 38 -47 72q-29 28 -69 46q-41 17 -84 17h-230zM156 149h316q50 0 102 21q51 21 86 59q35 33 59 88q20 53 20 105t-20 103q-22 51 -59 90q-39 38 -83 58q-59 28 -136 29l-93 -1 l-45 -1h-42h-105v-551z" />
<glyph unicode="C" horiz-adv-x="1000" d="M1 716q0 152 53 277q50 125 158 235q107 107 233 159q93 38 198 49h77q74 0 146 -14q68 -14 134 -42l-63 -143q-101 42 -215 42q-113 0 -215 -42q-101 -44 -181 -124q-82 -81 -118 -170h-1q-46 -112 -46 -228q0 -117 41 -216q43 -101 124 -181q78 -81 181 -123 q102 -42 215 -42q114 0 217 42l62 -134q-68 -29 -134 -42q-69 -14 -146 -14q-148 0 -276 43q-128 52 -233 158q-108 107 -158 234q-53 124 -53 276z" />
<glyph unicode="D" horiz-adv-x="955" d="M0 -3v1437h274q137 -8 250 -55q133 -53 237 -156l1 -1q96 -95 142 -230q48 -135 48 -278q0 -144 -48 -278q-46 -133 -142 -228l-1 -1q-102 -103 -237 -155q-134 -55 -290 -55h-234zM156 154h80q122 0 223 38q102 37 181 116q78 79 116 183q38 100 38 225q0 123 -38 225 t-117 182q-77 76 -182 118q-101 38 -224 38h-77v-1125z" />
<glyph unicode="E" horiz-adv-x="755" d="M1 -2v1432h753l-39 -156h-557v-285q28 -4 59 -5q87 0 197 36q62 20 114 20q73 0 128 -39v-157q-58 43 -130 43q-48 0 -104 -20q-105 -38 -204 -38q-30 0 -60 4v-679h597v-156h-754z" />
<glyph unicode="F" horiz-adv-x="755" d="M1 0v1429h755l-40 -156h-558v-303q27 -4 56 -4q95 0 209 42q69 26 126 26q67 0 118 -35v-154q-43 45 -110 45q-53 0 -121 -28q-124 -51 -229 -51q-25 0 -49 3v-814h-157z" />
<glyph unicode="G" horiz-adv-x="1399" d="M-4 715q0 150 52 276q50 124 158 234q104 105 232 159q105 44 220 51v-1h57q75 0 144 -15q72 -14 134 -41l-62 -144q-99 42 -214 42q-118 0 -215 -42q-99 -40 -182 -123q-81 -84 -122 -181q-42 -103 -42 -215q0 -114 42 -215q41 -98 122 -181q82 -83 182 -124 q101 -42 215 -42q89 0 173 28q79 24 154 78q103 65 188 218v224q-21 7 -53 7q-77 0 -221 -38q-80 -21 -153 -21q-116 0 -214 52v153q97 -42 205 -42q98 0 204 35q97 32 184 32q115 0 215 -55v-358q-44 -139 -176 -260q-109 -105 -234 -158q-124 -52 -275 -52q-152 0 -276 52 q-127 53 -232 158q-108 108 -158 233q-52 125 -52 276z" />
<glyph unicode="H" horiz-adv-x="932" d="M-1 0v1438h157v-861q22 -8 50 -9q90 0 242 83q180 97 301 97q14 0 26 -1v691h157v-1438h-157v591q-8 9 -29 9q-62 0 -238 -86q-196 -97 -311 -97q-22 0 -41 4v-421h-157z" />
<glyph unicode="I" horiz-adv-x="433" d="M0 1l40 158h100v1118h-140v158h433l-40 -158h-96v-1118h133v-158h-430z" />
<glyph unicode="J" horiz-adv-x="394" d="M1 -121q63 33 108 79q57 55 90 131q31 74 35 153v1192h159v-1189q-5 -121 -45 -220q-43 -100 -125 -182q-83 -82 -152 -114z" />
<glyph unicode="K" horiz-adv-x="987" d="M0 0v1435h156v-713l470 713h180l-439 -657l622 -779h-203l-517 637l-113 -175v-461h-156z" />
<glyph unicode="L" horiz-adv-x="660" d="M0 0v1436h158v-1281h492l-50 -155h-600z" />
<glyph unicode="M" horiz-adv-x="1274" d="M0 0v1433l652 -1107l619 1107v-1433h-161v813l-458 -812l-491 822v-823h-161z" />
<glyph unicode="N" horiz-adv-x="1039" d="M1 0v1438l878 -1008v1005h157v-1439l-878 982v-978h-157z" />
<glyph unicode="O" horiz-adv-x="1436" d="M2 715q0 150 52 274q50 124 157 234q107 106 232 158q123 52 275 52q150 0 274 -52t233 -159q106 -107 158 -232q53 -128 53 -275q0 -148 -53 -275q-52 -126 -158 -232q-105 -104 -233 -157q-128 -52 -274 -52q-148 0 -275 53q-127 51 -232 156q-107 107 -156 233 q-53 123 -53 274zM160 717q0 -117 40 -214q40 -98 123 -181q78 -80 180 -122q101 -41 215 -41q113 0 213 42q100 41 181 121q82 83 122 181q43 98 43 214q0 114 -43 214q-41 97 -121 181q-81 79 -182 122q-100 42 -213 42q-114 0 -215 -42q-103 -44 -180 -122 q-82 -83 -123 -181q-40 -99 -40 -214z" />
<glyph unicode="P" horiz-adv-x="831" d="M0 -1v1435h349q100 0 183 -35q84 -34 156 -106q71 -69 107 -155q34 -84 34 -218.5t-34 -217.5q-35 -84 -106 -154q-71 -71 -157 -105q-84 -35 -183 -35h-191v-409h-158zM158 564h81l110 -1q67 0 124 23q55 22 104 71q46 48 70 104q24 55 24 158t-24 159q-21 53 -70 104 q-46 48 -103 72q-58 24 -125 24h-191v-714z" />
<glyph unicode="Q" horiz-adv-x="1436" d="M-2 824q23 148 94 262q69 115 192 207q122 88 254 120q74 18 154 18q61 0 125 -10q148 -23 263 -94q114 -71 205 -193q88 -123 120 -254q19 -79 19 -160q0 -59 -10 -120q-23 -146 -95 -264q-71 -116 -192 -204q-51 -37 -105 -63q76 -110 139 -152.5t136 -45.5l-92 -124 q-12 -2 -24 -2q-57 0 -131 53q-90 64 -182 214q-75 -17 -153 -17q-60 0 -122 10q-146 23 -263 95q-118 70 -205 190q-89 123 -118 255q-19 75 -19 157q0 59 10 122zM154 801q-8 -49 -8 -96q0 -63 14 -121q25 -103 94 -198q64 -92 158 -149q94 -56 206 -74q45 -7 89 -7 q34 0 67 4q-27 45 -114 114q-59 46 -141 46q-38 0 -81 -10l79 148q38 6 72 6q86 0 151 -36q85 -46 196 -222q50 22 97 56q94 69 149 160q57 90 76 205q7 44 7 88q0 66 -16 130q-26 102 -92 197q-67 91 -160 149q-93 57 -204 75q-46 7 -91 7q-65 0 -128 -15 q-109 -27 -197 -92q-94 -69 -150 -160q-55 -91 -73 -205z" />
<glyph unicode="R" horiz-adv-x="881" d="M0 -1v1435h349q100 0 183 -35q84 -34 156 -106q71 -69 107 -155q34 -84 34 -218.5t-34 -217.5q-35 -84 -106 -154q-69 -69 -153 -103l350 -445h-197l-320 408h-211v-409h-158zM158 564h81l110 -1q67 0 124 23q55 22 104 71q46 48 70 104q24 55 24 158t-24 159 q-21 53 -70 104q-46 48 -103 72q-58 24 -125 24h-191v-714z" />
<glyph unicode="S" horiz-adv-x="851" d="M0 429l156 1q1 -69 32 -131t91 -100q65 -40 150 -40h16q95 4 161 59q38 37 61 82q24 45 24 101q0 41 -19 78t-48 63q-28 26 -70 47q-40 22 -77 35q-36 13 -80 25q-95 26 -167 67q-72 40 -127 106q-36 44 -55 99q-21 54 -21 115q0 81 31 154t86 128q55 56 128 86 q73 31 155 31q74 0 142 -25q67 -27 121 -73l-91 -132q-72 70 -170 70q-49 0 -93 -19q-44 -18 -77 -51q-33 -34 -52 -78t-19 -92q0 -35 11 -66t27 -54q17 -22 42 -42q25 -19 49 -32q23 -13 55 -26q32 -12 55 -20q23 -7 53 -17q31 -9 47 -15q51 -18 97 -43q47 -25 89 -60 q43 -34 73 -73q29 -39 48 -89q18 -49 18 -103q0 -82 -36 -156q-36 -75 -93 -128q-59 -53 -137 -85q-77 -29 -162 -29t-169 35q-83 36 -146 103q-54 61 -81 130.5t-28 163.5z" />
<glyph unicode="T" horiz-adv-x="749" d="M-2 1281v155h746l-40 -155h-254v-1281h-158v1281h-294z" />
<glyph unicode="U" horiz-adv-x="964" d="M1 1435h158l1 -927q6 -146 76 -227t156 -107q42 -13 89 -13t97 13q100 27 160 117.5t64 216.5l-1 927h158l1 -928q-7 -124 -49 -217t-123 -167q-81 -73 -193 -109q-53 -17 -109 -17q-60 0 -126 20q-124 39 -197 108.5t-117 167t-44 214.5z" />
<glyph unicode="V" horiz-adv-x="1345" d="M4 1433h193l480 -1063l502 1063h178l-678 -1438z" />
<glyph unicode="W" horiz-adv-x="2181" d="M4 1433h193l480 -1063l419 887l401 -887l502 1063h178l-678 -1438l-408 872l-412 -872z" />
<glyph unicode="X" horiz-adv-x="1166" d="M-5 1l490 716l-490 716h198l391 -572l391 572h197l-489 -716l489 -716h-198l-390 571l-390 -571h-199z" />
<glyph unicode="Y" horiz-adv-x="1074" d="M3 1438h192l341 -671l356 671h181l-446 -841v-598h-179v597z" />
<glyph unicode="Z" horiz-adv-x="1154" d="M1 -7l869 1290h-695l-70 147h1054l-873 -1301h718l-40 -136h-963z" />
<glyph unicode="[" horiz-adv-x="474" />
<glyph unicode="\" horiz-adv-x="1020" />
<glyph unicode="]" horiz-adv-x="474" />
<glyph unicode="^" horiz-adv-x="924" />
<glyph unicode="_" horiz-adv-x="904" />
<glyph unicode="`" horiz-adv-x="431" />
<glyph unicode="a" horiz-adv-x="1218" d="M0 1l608 1428l608 -1428h-170l-59 135h-757l-60 -135h-170zM285 276h646l-183 417q-60 161 -139 345q-79 -184 -141 -345z" />
<glyph unicode="b" horiz-adv-x="889" d="M1 1v1432h385q71 0 140 -28q67 -29 119 -80q49 -52 76 -112q27 -63 27 -135q-5 -85 -39.5 -148.5t-96.5 -114.5q83 -34 155 -96q66 -66 90 -137q31 -74 31 -160q0 -87 -31 -161q-32 -77 -91 -136q-59 -60 -136 -93q-76 -31 -158 -31h-471zM155 839q91 -4 156 -4 q26 0 49 1q14 1 26 1l5 1q49 6 78 20q35 15 70 51q30 32 47 71q16 39 16 85q0 45 -16 84q-17 38 -47 72q-29 28 -69 46q-41 17 -84 17h-230zM156 149h316q50 0 102 21q51 21 86 59q35 33 59 88q20 53 20 105t-20 103q-22 51 -59 90q-39 38 -83 58q-59 28 -136 29l-93 -1 l-45 -1h-42h-105v-551z" />
<glyph unicode="c" horiz-adv-x="1000" d="M1 716q0 152 53 277q50 125 158 235q107 107 233 159q93 38 198 49h77q74 0 146 -14q68 -14 134 -42l-63 -143q-101 42 -215 42q-113 0 -215 -42q-101 -44 -181 -124q-82 -81 -118 -170h-1q-46 -112 -46 -228q0 -117 41 -216q43 -101 124 -181q78 -81 181 -123 q102 -42 215 -42q114 0 217 42l62 -134q-68 -29 -134 -42q-69 -14 -146 -14q-148 0 -276 43q-128 52 -233 158q-108 107 -158 234q-53 124 -53 276z" />
<glyph unicode="d" horiz-adv-x="955" d="M0 -3v1437h274q137 -8 250 -55q133 -53 237 -156l1 -1q96 -95 142 -230q48 -135 48 -278q0 -144 -48 -278q-46 -133 -142 -228l-1 -1q-102 -103 -237 -155q-134 -55 -290 -55h-234zM156 154h80q122 0 223 38q102 37 181 116q78 79 116 183q38 100 38 225q0 123 -38 225 t-117 182q-77 76 -182 118q-101 38 -224 38h-77v-1125z" />
<glyph unicode="e" horiz-adv-x="755" d="M1 -2v1432h753l-39 -156h-557v-285h477v-156h-477v-679h597v-156h-754z" />
<glyph unicode="f" horiz-adv-x="755" d="M1 0v1429h755l-40 -156h-558v-283h478v-156h-478v-834h-157z" />
<glyph unicode="g" horiz-adv-x="1396" d="M-4 715q0 150 52 276q50 124 158 234q104 105 232 159q105 44 220 51v-1h57q75 0 144 -15q72 -14 134 -41l-62 -144q-99 42 -214 42q-118 0 -215 -42q-99 -40 -182 -123q-81 -84 -122 -181q-42 -103 -42 -215q0 -114 42 -215q41 -98 122 -181q82 -83 182 -124 q101 -42 215 -42q89 0 173 28q79 24 154 78q103 65 188 218v224h-641v143h808v-378q-44 -139 -176 -260q-109 -105 -234 -158q-124 -52 -275 -52q-152 0 -276 52q-127 53 -232 158q-108 108 -158 233q-52 125 -52 276z" />
<glyph unicode="h" horiz-adv-x="932" d="M-1 0v1438h157v-791h619v791h157v-1438h-157v491h-619v-491h-157z" />
<glyph unicode="i" horiz-adv-x="433" d="M0 1l40 158h100v1118h-140v158h433l-40 -158h-96v-1118h133v-158h-430z" />
<glyph unicode="j" horiz-adv-x="394" d="M1 -121q63 33 108 79q57 55 90 131q31 74 35 153v1192h159v-1189q-5 -121 -45 -220q-43 -100 -125 -182q-83 -82 -152 -114z" />
<glyph unicode="k" horiz-adv-x="987" d="M0 0v1435h156v-713l470 713h180l-439 -657l622 -779h-203l-517 637l-113 -175v-461h-156z" />
<glyph unicode="l" horiz-adv-x="660" d="M0 0v1436h158v-1281h492l-50 -155h-600z" />
<glyph unicode="m" horiz-adv-x="1273" d="M0 0v1433l652 -1107l619 1107v-1433h-161v813l-458 -812l-491 822v-823h-161z" />
<glyph unicode="n" horiz-adv-x="1039" d="M1 0v1438l878 -1008v1005h157v-1439l-878 982v-978h-157z" />
<glyph unicode="o" horiz-adv-x="1436" d="M2 715q0 150 52 274q50 124 157 234q107 106 232 158q123 52 275 52q150 0 274 -52t233 -159q106 -107 158 -232q53 -128 53 -275q0 -148 -53 -275q-52 -126 -158 -232q-105 -104 -233 -157q-128 -52 -274 -52q-148 0 -275 53q-127 51 -232 156q-107 107 -156 233 q-53 123 -53 274zM160 717q0 -117 40 -214q40 -98 123 -181q78 -80 180 -122q101 -41 215 -41q113 0 213 42q100 41 181 121q82 83 122 181q43 98 43 214q0 114 -43 214q-41 97 -121 181q-81 79 -182 122q-100 42 -213 42q-114 0 -215 -42q-103 -44 -180 -122 q-82 -83 -123 -181q-40 -99 -40 -214z" />
<glyph unicode="p" horiz-adv-x="831" d="M0 -1v1435h349q100 0 183 -35q84 -34 156 -106q71 -69 107 -155q34 -84 34 -218.5t-34 -217.5q-35 -84 -106 -154q-71 -71 -157 -105q-84 -35 -183 -35h-191v-409h-158zM158 564h81l110 -1q67 0 124 23q55 22 104 71q46 48 70 104q24 55 24 158t-24 159q-21 53 -70 104 q-46 48 -103 72q-58 24 -125 24h-191v-714z" />
<glyph unicode="q" horiz-adv-x="1436" d="M-2 824q23 148 94 262q69 115 192 207q122 88 254 120q74 18 154 18q61 0 125 -10q148 -23 263 -94q114 -71 205 -193q88 -123 120 -254q19 -79 19 -160q0 -59 -10 -120q-23 -146 -95 -264q-71 -116 -192 -204q-51 -37 -105 -63q76 -110 139 -152.5t136 -45.5l-92 -124 q-12 -2 -24 -2q-57 0 -131 53q-90 64 -182 214q-75 -17 -153 -17q-60 0 -122 10q-146 23 -263 95q-118 70 -205 190q-89 123 -118 255q-19 75 -19 157q0 59 10 122zM154 801q-8 -49 -8 -96q0 -63 14 -121q25 -103 94 -198q64 -92 158 -149q94 -56 206 -74q45 -7 89 -7 q34 0 67 4q-27 45 -114 114q-59 46 -141 46q-38 0 -81 -10l79 148q38 6 72 6q86 0 151 -36q85 -46 196 -222q50 22 97 56q94 69 149 160q57 90 76 205q7 44 7 88q0 66 -16 130q-26 102 -92 197q-67 91 -160 149q-93 57 -204 75q-46 7 -91 7q-65 0 -128 -15 q-109 -27 -197 -92q-94 -69 -150 -160q-55 -91 -73 -205z" />
<glyph unicode="r" horiz-adv-x="881" d="M0 -1v1435h349q100 0 183 -35q84 -34 156 -106q71 -69 107 -155q34 -84 34 -218.5t-34 -217.5q-35 -84 -106 -154q-69 -69 -153 -103l350 -445h-197l-320 408h-211v-409h-158zM158 564h81l110 -1q67 0 124 23q55 22 104 71q46 48 70 104q24 55 24 158t-24 159 q-21 53 -70 104q-46 48 -103 72q-58 24 -125 24h-191v-714z" />
<glyph unicode="s" horiz-adv-x="851" d="M0 429l156 1q1 -69 32 -131t91 -100q65 -40 150 -40h16q95 4 161 59q38 37 61 82q24 45 24 101q0 41 -19 78t-48 63q-28 26 -70 47q-40 22 -77 35q-36 13 -80 25q-95 26 -167 67q-72 40 -127 106q-36 44 -55 99q-21 54 -21 115q0 81 31 154t86 128q55 56 128 86 q73 31 155 31q74 0 142 -25q67 -27 121 -73l-91 -132q-72 70 -170 70q-49 0 -93 -19q-44 -18 -77 -51q-33 -34 -52 -78t-19 -92q0 -35 11 -66t27 -54q17 -22 42 -42q25 -19 49 -32q23 -13 55 -26q32 -12 55 -20q23 -7 53 -17q31 -9 47 -15q51 -18 97 -43q47 -25 89 -60 q43 -34 73 -73q29 -39 48 -89q18 -49 18 -103q0 -82 -36 -156q-36 -75 -93 -128q-59 -53 -137 -85q-77 -29 -162 -29t-169 35q-83 36 -146 103q-54 61 -81 130.5t-28 163.5z" />
<glyph unicode="t" horiz-adv-x="749" d="M-2 1281v155h746l-40 -155h-254v-1281h-158v1281h-294z" />
<glyph unicode="u" horiz-adv-x="964" d="M1 1435h158l1 -927q6 -146 76 -227t156 -107q42 -13 89 -13t97 13q100 27 160 117.5t64 216.5l-1 927h158l1 -928q-7 -124 -49 -217t-123 -167q-81 -73 -193 -109q-53 -17 -109 -17q-60 0 -126 20q-124 39 -197 108.5t-117 167t-44 214.5z" />
<glyph unicode="v" horiz-adv-x="1345" d="M4 1433h193l480 -1063l502 1063h178l-678 -1438z" />
<glyph unicode="w" horiz-adv-x="2181" d="M4 1433h193l480 -1063l419 887l401 -887l502 1063h178l-678 -1438l-408 872l-412 -872z" />
<glyph unicode="x" horiz-adv-x="1166" d="M-5 1l490 716l-490 716h198l391 -572l391 572h197l-489 -716l489 -716h-198l-390 571l-390 -571h-199z" />
<glyph unicode="y" horiz-adv-x="1074" d="M3 1438h192l341 -671l356 671h181l-446 -841v-598h-179v597z" />
<glyph unicode="z" horiz-adv-x="1154" d="M1 -7l869 1290h-695l-70 147h1054l-873 -1301h718l-40 -136h-963z" />
<glyph unicode="{" horiz-adv-x="636" />
<glyph unicode="|" horiz-adv-x="305" />
<glyph unicode="}" horiz-adv-x="636" />
<glyph unicode="~" horiz-adv-x="970" />
<glyph unicode="&#xa1;" horiz-adv-x="265" />
<glyph unicode="&#xa2;" horiz-adv-x="900" d="M68 669q0 118 41 215q39 97 123 183q83 83 182 124q72 29 155 38h59q57 0 113 -11q53 -11 123 -41l-63 -143q-90 37 -172 37q-81 0 -153 -30q-73 -31 -130 -89q-59 -58 -89 -133h-1q-28 -68 -28 -151q0 -84 29 -154q31 -73 89 -130q56 -58 129 -88t154 -30q82 0 173 37 l63 -136q-72 -31 -123 -41q-54 -11 -114 -11q-114 0 -214 34q-100 40 -182 123q-84 83 -123 182q-41 96 -41 215zM468 -173v1666h145v-1664z" />
<glyph unicode="&#xa3;" horiz-adv-x="1043" d="M86 3v150h82q128 124 120 433h-123v115h113q-29 82 -64.5 167t-7 203.5t123.5 197.5q80 78 178 120q97 40 209 42h11q69 -1 103 -9t66 -20l-82 -143q-4 1 -11 2q-26 5 -76 7h-19l-12 -1q-17 -2 -29 -2l-2 -1q-59 -8 -115 -36q-58 -31 -103 -75q-132 -143 -78.5 -266 t71.5 -186h319v-115h-309q-6 -186 -26 -268.5t-66 -164.5h596v-150h-869z" />
<glyph unicode="&#xa4;" />
<glyph unicode="&#xa5;" horiz-adv-x="1137" d="M63 1429h187l317 -646l319 646h186l-341 -688l-63 -114h393v-119h-413v-62h413v-119h-413v-329h-162v329h-411v119h411v62h-411v119h391l-61 114z" />
<glyph unicode="&#xa6;" />
<glyph unicode="&#xa7;" />
<glyph unicode="&#xa8;" horiz-adv-x="793" />
<glyph unicode="&#xa9;" horiz-adv-x="806" />
<glyph unicode="&#xaa;" horiz-adv-x="648" />
<glyph unicode="&#xab;" horiz-adv-x="944" />
<glyph unicode="&#xac;" />
<glyph unicode="&#xad;" horiz-adv-x="645" />
<glyph unicode="&#xae;" horiz-adv-x="806" />
<glyph unicode="&#xaf;" horiz-adv-x="670" />
<glyph unicode="&#xb0;" horiz-adv-x="806" />
<glyph unicode="&#xb1;" />
<glyph unicode="&#xb2;" />
<glyph unicode="&#xb3;" />
<glyph unicode="&#xb4;" horiz-adv-x="431" />
<glyph unicode="&#xb5;" horiz-adv-x="1180" />
<glyph unicode="&#xb6;" horiz-adv-x="1024" />
<glyph unicode="&#xb7;" horiz-adv-x="508" />
<glyph unicode="&#xb8;" horiz-adv-x="588" />
<glyph unicode="&#xb9;" />
<glyph unicode="&#xba;" horiz-adv-x="718" />
<glyph unicode="&#xbb;" horiz-adv-x="944" />
<glyph unicode="&#xbc;" horiz-adv-x="1708" />
<glyph unicode="&#xbd;" horiz-adv-x="1964" />
<glyph unicode="&#xbe;" horiz-adv-x="1708" />
<glyph unicode="&#xbf;" horiz-adv-x="799" />
<glyph unicode="&#xc0;" horiz-adv-x="1276" d="M0 1l608 1428l608 -1428h-170l-150 344q-162 -1 -305.5 -119t-360.5 -90l-60 -135h-170zM285 276q142 -14 290 97t265 115l-92 205q-60 161 -139 345q-79 -184 -141 -345zM316 1809h179l218 -309l-179 -1z" />
<glyph unicode="&#xc1;" horiz-adv-x="1276" d="M0 1l608 1428l608 -1428h-170l-150 344q-162 -1 -305.5 -119t-360.5 -90l-60 -135h-170zM285 276q142 -14 290 97t265 115l-92 205q-60 161 -139 345q-79 -184 -141 -345zM496 1500l218 309h179l-218 -310z" />
<glyph unicode="&#xc2;" horiz-adv-x="1276" d="M0 1l608 1428l608 -1428h-170l-150 344q-162 -1 -305.5 -119t-360.5 -90l-60 -135h-170zM285 276q142 -14 290 97t265 115l-92 205q-60 161 -139 345q-79 -184 -141 -345zM394 1499l194 347h54l192 -347h-126l-96 169l-94 -169h-124z" />
<glyph unicode="&#xc3;" horiz-adv-x="1281" d="M0 1l608 1428l608 -1428h-170l-150 344q-162 -1 -305.5 -119t-360.5 -90l-60 -135h-170zM218 1456q65 120 173 165q73 21 198 -31q87 -46 227 -85.5t226 70.5v162q-78 -90 -166.5 -93t-243.5 71q-128 69 -244.5 52.5t-169.5 -115.5v-196zM285 276q142 -14 290 97t265 115 l-92 205q-60 161 -139 345q-79 -184 -141 -345z" />
<glyph unicode="&#xc4;" horiz-adv-x="1281" d="M0 1l608 1428l608 -1428h-170l-150 344q-162 -1 -305.5 -119t-360.5 -90l-60 -135h-170zM285 276q142 -14 290 97t265 115l-92 205q-60 161 -139 345q-79 -184 -141 -345zM295 1568q0 -34 22 -56t53 -22q33 0 56 23q23 22 23 55t-22 55t-53 22q-33 0 -56 -22 q-23 -23 -23 -55zM760 1568q0 -34 22 -56t54 -22t55 23q23 22 23 55t-22 55t-53 22q-33 0 -56 -22q-23 -23 -23 -55z" />
<glyph unicode="&#xc5;" horiz-adv-x="1276" d="M0 1l608 1428l608 -1428h-170l-150 344q-162 -1 -305.5 -119t-360.5 -90l-60 -135h-170zM285 276q142 -14 290 97t265 115l-92 205q-60 161 -139 345q-79 -184 -141 -345zM452 1653q0 71 50 121t121 50t121 -50t50 -121t-50 -121t-121 -50t-121 50t-50 121zM531 1653 q0 -38 27 -65t65 -27t65 27t27 65t-27 65t-65 27t-65 -27t-27 -65z" />
<glyph unicode="&#xc6;" horiz-adv-x="1565" d="M0 1l732 1428v-325l-562 -1103h-170zM224 160v143h559v-143h-559zM731 -2v1432h753l-39 -156h-557v-285q108 -17 256 31t242 -19v-157q-97 72 -234.5 23t-263.5 -34v-679h597v-156h-754z" />
<glyph unicode="&#xc7;" horiz-adv-x="1069" d="M1 716q0 152 53 277q50 125 158 235q107 107 233 159q93 38 198 49h77q74 0 146 -14q68 -14 134 -42l-63 -143q-101 42 -215 42q-113 0 -215 -42q-101 -44 -181 -124q-82 -81 -118 -170h-1q-46 -112 -46 -228q0 -117 41 -216q43 -101 124 -181q78 -81 181 -123 q102 -42 215 -42q114 0 217 42l62 -134q-68 -29 -134 -42q-69 -14 -146 -14q-148 0 -276 43q-128 52 -233 158q-108 107 -158 234q-53 124 -53 276zM478 -276l107 -7q3 -27 5 -32q3 -11 4 -13h1q15 -17 26 -23q11 -5 23 -6t24 3t21 12q10 9 14 20q6 10 6 36t-26.5 51.5 t-108 81t-23.5 206.5l116 -8q-30 -80 -29.5 -99.5t69 -63.5t92.5 -92t19.5 -89t-18.5 -70q-15 -30 -40 -53q-25 -22 -57 -33t-65 -9q-34 3 -64 17q-31 16 -52 40q-23 26 -34 57q-8 23 -10 74z" />
<glyph unicode="&#xc8;" horiz-adv-x="835" d="M1 -2v1432h753l-39 -156h-557v-285q108 -17 256 31t242 -19v-157q-97 72 -234.5 23t-263.5 -34v-679h597v-156h-754zM180 1809h179l217 -309l-179 -1z" />
<glyph unicode="&#xc9;" horiz-adv-x="840" d="M1 -2v1432h753l-39 -156h-557v-285q108 -17 256 31t242 -19v-157q-97 72 -234.5 23t-263.5 -34v-679h597v-156h-754zM180 1500l217 309h179l-217 -310z" />
<glyph unicode="&#xca;" horiz-adv-x="835" d="M1 -2v1432h753l-39 -156h-557v-285q108 -17 256 31t242 -19v-157q-97 72 -234.5 23t-263.5 -34v-679h597v-156h-754zM158 1499l193 347h55l192 -347h-127l-95 169l-94 -169h-124z" />
<glyph unicode="&#xcb;" horiz-adv-x="840" d="M1 -2v1432h753l-39 -156h-557v-285q108 -17 256 31t242 -19v-157q-97 72 -234.5 23t-263.5 -34v-679h597v-156h-754zM75 1568q0 -34 22 -56t53 -22q33 0 56 23q23 22 23 55t-22 55t-53 22q-33 0 -56 -22q-23 -23 -23 -55zM540 1568q0 -34 22 -56t54 -22t55 23 q23 22 23 55t-22 55t-53 22q-33 0 -56 -22q-23 -23 -23 -55z" />
<glyph unicode="&#xcc;" horiz-adv-x="494" d="M-82 1809h179l218 -309l-179 -1zM0 1l40 158h100v1118h-140v158h433l-40 -158h-96v-1118h133v-158h-430z" />
<glyph unicode="&#xcd;" horiz-adv-x="494" d="M0 1l40 158h100v1118h-140v158h433l-40 -158h-96v-1118h133v-158h-430zM118 1500l218 309h179l-218 -310z" />
<glyph unicode="&#xce;" horiz-adv-x="494" d="M-2 1499l193 347h55l192 -347h-127l-95 169l-94 -169h-124zM0 1l40 158h100v1118h-140v158h433l-40 -158h-96v-1118h133v-158h-430z" />
<glyph unicode="&#xcf;" horiz-adv-x="494" d="M-95 1568q0 -34 22 -56t53 -22q33 0 56 23q23 22 23 55t-22 55t-53 22q-33 0 -56 -22q-23 -23 -23 -55zM0 1l40 158h100v1118h-140v158h433l-40 -158h-96v-1118h133v-158h-430zM370 1568q0 -34 22 -56t54 -22t55 23q23 22 23 55t-22 55t-53 22q-33 0 -56 -22 q-23 -23 -23 -55z" />
<glyph unicode="&#xd0;" horiz-adv-x="1037" d="M-170 637v158h559v-158h-559zM0 -3v1437h274q137 -8 250 -55q133 -53 237 -156l1 -1q96 -95 142 -230q48 -135 48 -278q0 -144 -48 -278q-46 -133 -142 -228l-1 -1q-102 -103 -237 -155q-134 -55 -290 -55h-234zM156 153h80q122 0 223 38q102 37 181 116q78 79 116 183 q38 100 38 225q0 123 -38 225t-117 182q-77 76 -182 118q-101 38 -224 38h-77v-1125z" />
<glyph unicode="&#xd1;" horiz-adv-x="1104" d="M4 0v1438l878 -1008v1005h157v-1439l-878 982v-978h-157zM99 1456q65 120 173 165q73 21 199 -31q87 -46 226.5 -85.5t226.5 70.5l-1 162q-78 -90 -166 -93t-244 71q-127 69 -243.5 52.5t-169.5 -115.5z" />
<glyph unicode="&#xd2;" horiz-adv-x="1513" d="M2 715q0 150 52 274q50 124 157 234q107 106 232 158q123 52 275 52q150 0 274 -52t233 -159q106 -107 158 -232q53 -128 53 -275q0 -148 -53 -275q-52 -126 -158 -232q-105 -104 -233 -157q-128 -52 -274 -52q-148 0 -275 53q-127 51 -232 156q-107 107 -156 233 q-53 123 -53 274zM161 717q0 -117 40 -214q40 -98 123 -181q78 -80 180 -122q101 -41 215 -41q113 0 213 42q100 41 181 121q82 83 122 181q43 98 43 214q0 114 -43 214q-41 97 -121 181q-81 79 -182 122q-100 42 -213 42q-114 0 -215 -42q-103 -44 -180 -122 q-82 -83 -123 -181q-40 -99 -40 -214zM441 1809h179l217 -309l-179 -1z" />
<glyph unicode="&#xd3;" horiz-adv-x="1513" d="M2 715q0 150 52 274q50 124 157 234q107 106 232 158q123 52 275 52q150 0 274 -52t233 -159q106 -107 158 -232q53 -128 53 -275q0 -148 -53 -275q-52 -126 -158 -232q-105 -104 -233 -157q-128 -52 -274 -52q-148 0 -275 53q-127 51 -232 156q-107 107 -156 233 q-53 123 -53 274zM160 717q0 -117 40 -214q40 -98 123 -181q78 -80 180 -122q101 -41 215 -41q113 0 213 42q100 41 181 121q82 83 122 181q43 98 43 214q0 114 -43 214q-41 97 -121 181q-81 79 -182 122q-100 42 -213 42q-114 0 -215 -42q-103 -44 -180 -122 q-82 -83 -123 -181q-40 -99 -40 -214zM601 1500l217 309h179l-217 -310z" />
<glyph unicode="&#xd4;" horiz-adv-x="1517" d="M2 715q0 150 52 274q50 124 157 234q107 106 232 158q123 52 275 52q150 0 274 -52t233 -159q106 -107 158 -232q53 -128 53 -275q0 -148 -53 -275q-52 -126 -158 -232q-105 -104 -233 -157q-128 -52 -274 -52q-148 0 -275 53q-127 51 -232 156q-107 107 -156 233 q-53 123 -53 274zM161 717q0 -117 40 -214q40 -98 123 -181q78 -80 180 -122q101 -41 215 -41q113 0 213 42q100 41 181 121q82 83 122 181q43 98 43 214q0 114 -43 214q-41 97 -121 181q-81 79 -182 122q-100 42 -213 42q-114 0 -215 -42q-103 -44 -180 -122 q-82 -83 -123 -181q-40 -99 -40 -214zM499 1499l193 347h55l192 -347h-127l-95 169l-94 -169h-124z" />
<glyph unicode="&#xd5;" horiz-adv-x="1513" d="M2 715q0 150 52 274q50 124 157 234q107 106 232 158q123 52 275 52q150 0 274 -52t233 -159q106 -107 158 -232q53 -128 53 -275q0 -148 -53 -275q-52 -126 -158 -232q-105 -104 -233 -157q-128 -52 -274 -52q-148 0 -275 53q-127 51 -232 156q-107 107 -156 233 q-53 123 -53 274zM161 717q0 -117 40 -214q40 -98 123 -181q78 -80 180 -122q101 -41 215 -41q113 0 213 42q100 41 181 121q82 83 122 181q43 98 43 214q0 114 -43 214q-41 97 -121 181q-81 79 -182 122q-100 42 -213 42q-114 0 -215 -42q-103 -44 -180 -122 q-82 -83 -123 -181q-40 -99 -40 -214zM307 1456q65 120 173 165q73 21 198 -31q87 -46 226.5 -85.5t226.5 70.5v162q-78 -90 -166.5 -93t-243.5 71q-128 69 -244.5 52.5t-169.5 -115.5v-196z" />
<glyph unicode="&#xd6;" horiz-adv-x="1513" d="M2 715q0 150 52 274q50 124 157 234q107 106 232 158q123 52 275 52q150 0 274 -52t233 -159q106 -107 158 -232q53 -128 53 -275q0 -148 -53 -275q-52 -126 -158 -232q-105 -104 -233 -157q-128 -52 -274 -52q-148 0 -275 53q-127 51 -232 156q-107 107 -156 233 q-53 123 -53 274zM160 717q0 -117 40 -214q40 -98 123 -181q78 -80 180 -122q101 -41 215 -41q113 0 213 42q100 41 181 121q82 83 122 181q43 98 43 214q0 114 -43 214q-41 97 -121 181q-81 79 -182 122q-100 42 -213 42q-114 0 -215 -42q-103 -44 -180 -122 q-82 -83 -123 -181q-40 -99 -40 -214zM408 1568q0 -34 22 -56t53 -22q33 0 56 23q23 22 23 55t-22 55t-53 22q-33 0 -56 -22q-23 -23 -23 -55zM873 1568q0 -34 22 -56t54 -22t55 23q23 22 23 55t-22 55t-53 22q-33 0 -56 -22q-23 -23 -23 -55z" />
<glyph unicode="&#xd7;" />
<glyph unicode="&#xd8;" horiz-adv-x="1513" d="M1 715q0 150 52 274q50 124 157 234q107 106 232 158q123 52 275 52q150 0 274 -52t233 -159q106 -107 158 -232q53 -128 53 -275q0 -148 -53 -275q-52 -126 -158 -232q-105 -104 -233 -157q-128 -52 -274 -52q-148 0 -275 53q-127 51 -232 156q-107 107 -156 233 q-53 123 -53 274zM159 717q0 -117 40 -214q40 -98 123 -181q78 -80 180 -122q101 -41 215 -41q113 0 213 42q100 41 181 121q82 83 122 181q43 98 43 214q0 114 -43 214q-41 97 -121 181q-81 79 -182 122q-100 42 -213 42q-114 0 -215 -42q-103 -44 -180 -122 q-82 -83 -123 -181q-40 -99 -40 -214zM206 -100l844 1664h180l-844 -1664h-180z" />
<glyph unicode="&#xd9;" horiz-adv-x="1035" d="M1 1435h158l1 -927q6 -146 76.5 -227t156 -107.5t186 0.5t160 117.5t63.5 216.5l-1 927h158l1 -928q-7 -124 -49 -217t-123 -167t-193 -109.5t-235.5 3.5t-196.5 108.5t-117 167t-44 214.5zM200 1809h179l217 -309l-179 -1z" />
<glyph unicode="&#xda;" horiz-adv-x="1035" d="M1 1435h158l1 -927q6 -146 76.5 -227t156 -107.5t186 0.5t160 117.5t63.5 216.5l-1 927h158l1 -928q-7 -124 -49 -217t-123 -167t-193 -109.5t-235.5 3.5t-196.5 108.5t-117 167t-44 214.5zM380 1500l217 309h179l-217 -310z" />
<glyph unicode="&#xdb;" horiz-adv-x="1035" d="M1 1435h158l1 -927q6 -146 76.5 -227t156 -107.5t186 0.5t160 117.5t63.5 216.5l-1 927h158l1 -928q-7 -124 -49 -217t-123 -167t-193 -109.5t-235.5 3.5t-196.5 108.5t-117 167t-44 214.5zM284 1499l194 347h54l192 -347h-126l-96 169l-94 -169h-124z" />
<glyph unicode="&#xdc;" horiz-adv-x="1035" d="M1 1435h158l1 -927q6 -146 76.5 -227t156 -107.5t186 0.5t160 117.5t63.5 216.5l-1 927h158l1 -928q-7 -124 -49 -217t-123 -167t-193 -109.5t-235.5 3.5t-196.5 108.5t-117 167t-44 214.5zM178 1568q0 -34 22 -56t53 -22q33 0 56 23q23 22 23 55t-22 55t-53 22 q-33 0 -56 -22q-23 -23 -23 -55zM643 1568q0 -34 22 -56t54 -22t55 23q23 22 23 55t-22 55t-53 22q-33 0 -56 -22q-23 -23 -23 -55z" />
<glyph unicode="&#xdd;" horiz-adv-x="1130" d="M3 1438h192l341 -671l356 671h181l-446 -841v-598h-179v597zM460 1500l217 309h179l-217 -310z" />
<glyph unicode="&#xde;" horiz-adv-x="1120" />
<glyph unicode="&#xdf;" horiz-adv-x="1251" />
<glyph unicode="&#xe0;" horiz-adv-x="1276" d="M0 1l608 1428l608 -1428h-170l-59 135h-757l-60 -135h-170zM285 276h646l-183 417q-60 161 -139 345q-79 -184 -141 -345zM316 1809h179l218 -309l-179 -1z" />
<glyph unicode="&#xe1;" horiz-adv-x="1276" d="M0 1l608 1428l608 -1428h-170l-59 135h-757l-60 -135h-170zM285 276h646l-183 417q-60 161 -139 345q-79 -184 -141 -345zM496 1500l218 309h179l-218 -310z" />
<glyph unicode="&#xe2;" horiz-adv-x="1276" d="M0 1l608 1428l608 -1428h-170l-59 135h-757l-60 -135h-170zM285 276h646l-183 417q-60 161 -139 345q-79 -184 -141 -345zM394 1499l194 347h54l192 -347h-126l-96 169l-94 -169h-124z" />
<glyph unicode="&#xe3;" horiz-adv-x="1281" d="M0 1l608 1428l608 -1428h-170l-59 135h-757l-60 -135h-170zM218 1456q65 120 173 165q73 21 198 -31q87 -46 227 -85.5t226 70.5v162q-78 -90 -166.5 -93t-243.5 71q-128 69 -244.5 52.5t-169.5 -115.5v-196zM285 276h646l-183 417q-60 161 -139 345q-79 -184 -141 -345z " />
<glyph unicode="&#xe4;" horiz-adv-x="1281" d="M0 1l608 1428l608 -1428h-170l-59 135h-757l-60 -135h-170zM285 276h646l-183 417q-60 161 -139 345q-79 -184 -141 -345zM295 1568q0 -34 22 -56t53 -22q33 0 56 23q23 22 23 55t-22 55t-53 22q-33 0 -56 -22q-23 -23 -23 -55zM760 1568q0 -34 22 -56t54 -22t55 23 q23 22 23 55t-22 55t-53 22q-33 0 -56 -22q-23 -23 -23 -55z" />
<glyph unicode="&#xe5;" horiz-adv-x="1276" d="M0 1l608 1428l608 -1428h-170l-59 135h-757l-60 -135h-170zM285 276h646l-183 417q-60 161 -139 345q-79 -184 -141 -345zM452 1653q0 71 50 121t121 50t121 -50t50 -121t-50 -121t-121 -50t-121 50t-50 121zM531 1653q0 -38 27 -65t65 -27t65 27t27 65t-27 65t-65 27 t-65 -27t-27 -65z" />
<glyph unicode="&#xe6;" horiz-adv-x="1565" d="M0 1l732 1428v-325l-562 -1103h-170zM224 160v143h559v-143h-559zM731 -2v1432h753l-39 -156h-557v-285h477v-156h-477v-679h597v-156h-754z" />
<glyph unicode="&#xe7;" horiz-adv-x="1069" d="M1 716q0 152 53 277q50 125 158 235q107 107 233 159q93 38 198 49h77q74 0 146 -14q68 -14 134 -42l-63 -143q-101 42 -215 42q-113 0 -215 -42q-101 -44 -181 -124q-82 -81 -118 -170h-1q-46 -112 -46 -228q0 -117 41 -216q43 -101 124 -181q78 -81 181 -123 q102 -42 215 -42q114 0 217 42l62 -134q-68 -29 -134 -42q-69 -14 -146 -14q-148 0 -276 43q-128 52 -233 158q-108 107 -158 234q-53 124 -53 276zM478 -276l107 -7q3 -27 5 -32q3 -11 4 -13h1q15 -17 26 -23q11 -5 23 -6t24 3t21 12q10 9 14 20q6 10 6 36t-26.5 51.5 t-108 81t-23.5 206.5l116 -8q-30 -80 -29.5 -99.5t69 -63.5t92.5 -92t19.5 -89t-18.5 -70q-15 -30 -40 -53q-25 -22 -57 -33t-65 -9q-34 3 -64 17q-31 16 -52 40q-23 26 -34 57q-8 23 -10 74z" />
<glyph unicode="&#xe8;" horiz-adv-x="835" d="M1 -2v1432h753l-39 -156h-557v-285h477v-156h-477v-679h597v-156h-754zM180 1809h179l217 -309l-179 -1z" />
<glyph unicode="&#xe9;" horiz-adv-x="840" d="M1 -2v1432h753l-39 -156h-557v-285h477v-156h-477v-679h597v-156h-754zM180 1500l217 309h179l-217 -310z" />
<glyph unicode="&#xea;" horiz-adv-x="835" d="M1 -2v1432h753l-39 -156h-557v-285h477v-156h-477v-679h597v-156h-754zM158 1499l193 347h55l192 -347h-127l-95 169l-94 -169h-124z" />
<glyph unicode="&#xeb;" horiz-adv-x="840" d="M1 -2v1432h753l-39 -156h-557v-285h477v-156h-477v-679h597v-156h-754zM75 1568q0 -34 22 -56t53 -22q33 0 56 23q23 22 23 55t-22 55t-53 22q-33 0 -56 -22q-23 -23 -23 -55zM540 1568q0 -34 22 -56t54 -22t55 23q23 22 23 55t-22 55t-53 22q-33 0 -56 -22 q-23 -23 -23 -55z" />
<glyph unicode="&#xec;" horiz-adv-x="494" d="M-82 1809h179l218 -309l-179 -1zM0 1l40 158h100v1118h-140v158h433l-40 -158h-96v-1118h133v-158h-430z" />
<glyph unicode="&#xed;" horiz-adv-x="494" d="M0 1l40 158h100v1118h-140v158h433l-40 -158h-96v-1118h133v-158h-430zM118 1500l218 309h179l-218 -310z" />
<glyph unicode="&#xee;" horiz-adv-x="494" d="M-2 1499l193 347h55l192 -347h-127l-95 169l-94 -169h-124zM0 1l40 158h100v1118h-140v158h433l-40 -158h-96v-1118h133v-158h-430z" />
<glyph unicode="&#xef;" horiz-adv-x="494" d="M-95 1568q0 -34 22 -56t53 -22q33 0 56 23q23 22 23 55t-22 55t-53 22q-33 0 -56 -22q-23 -23 -23 -55zM0 1l40 158h100v1118h-140v158h433l-40 -158h-96v-1118h133v-158h-430zM370 1568q0 -34 22 -56t54 -22t55 23q23 22 23 55t-22 55t-53 22q-33 0 -56 -22 q-23 -23 -23 -55z" />
<glyph unicode="&#xf0;" horiz-adv-x="1037" d="M-170 637v158h559v-158h-559zM0 -3v1437h274q137 -8 250 -55q133 -53 237 -156l1 -1q96 -95 142 -230q48 -135 48 -278q0 -144 -48 -278q-46 -133 -142 -228l-1 -1q-102 -103 -237 -155q-134 -55 -290 -55h-234zM156 153h80q122 0 223 38q102 37 181 116q78 79 116 183 q38 100 38 225q0 123 -38 225t-117 182q-77 76 -182 118q-101 38 -224 38h-77v-1125z" />
<glyph unicode="&#xf1;" horiz-adv-x="1104" d="M4 0v1438l878 -1008v1005h157v-1439l-878 982v-978h-157zM99 1456q65 120 173 165q73 21 199 -31q87 -46 226.5 -85.5t226.5 70.5l-1 162q-78 -90 -166 -93t-244 71q-127 69 -243.5 52.5t-169.5 -115.5z" />
<glyph unicode="&#xf2;" horiz-adv-x="1513" d="M2 715q0 150 52 274q50 124 157 234q107 106 232 158q123 52 275 52q150 0 274 -52t233 -159q106 -107 158 -232q53 -128 53 -275q0 -148 -53 -275q-52 -126 -158 -232q-105 -104 -233 -157q-128 -52 -274 -52q-148 0 -275 53q-127 51 -232 156q-107 107 -156 233 q-53 123 -53 274zM161 717q0 -117 40 -214q40 -98 123 -181q78 -80 180 -122q101 -41 215 -41q113 0 213 42q100 41 181 121q82 83 122 181q43 98 43 214q0 114 -43 214q-41 97 -121 181q-81 79 -182 122q-100 42 -213 42q-114 0 -215 -42q-103 -44 -180 -122 q-82 -83 -123 -181q-40 -99 -40 -214zM441 1809h179l217 -309l-179 -1z" />
<glyph unicode="&#xf3;" horiz-adv-x="1513" d="M2 715q0 150 52 274q50 124 157 234q107 106 232 158q123 52 275 52q150 0 274 -52t233 -159q106 -107 158 -232q53 -128 53 -275q0 -148 -53 -275q-52 -126 -158 -232q-105 -104 -233 -157q-128 -52 -274 -52q-148 0 -275 53q-127 51 -232 156q-107 107 -156 233 q-53 123 -53 274zM160 717q0 -117 40 -214q40 -98 123 -181q78 -80 180 -122q101 -41 215 -41q113 0 213 42q100 41 181 121q82 83 122 181q43 98 43 214q0 114 -43 214q-41 97 -121 181q-81 79 -182 122q-100 42 -213 42q-114 0 -215 -42q-103 -44 -180 -122 q-82 -83 -123 -181q-40 -99 -40 -214zM601 1500l217 309h179l-217 -310z" />
<glyph unicode="&#xf4;" horiz-adv-x="1517" d="M2 715q0 150 52 274q50 124 157 234q107 106 232 158q123 52 275 52q150 0 274 -52t233 -159q106 -107 158 -232q53 -128 53 -275q0 -148 -53 -275q-52 -126 -158 -232q-105 -104 -233 -157q-128 -52 -274 -52q-148 0 -275 53q-127 51 -232 156q-107 107 -156 233 q-53 123 -53 274zM161 717q0 -117 40 -214q40 -98 123 -181q78 -80 180 -122q101 -41 215 -41q113 0 213 42q100 41 181 121q82 83 122 181q43 98 43 214q0 114 -43 214q-41 97 -121 181q-81 79 -182 122q-100 42 -213 42q-114 0 -215 -42q-103 -44 -180 -122 q-82 -83 -123 -181q-40 -99 -40 -214zM499 1499l193 347h55l192 -347h-127l-95 169l-94 -169h-124z" />
<glyph unicode="&#xf5;" horiz-adv-x="1513" d="M2 715q0 150 52 274q50 124 157 234q107 106 232 158q123 52 275 52q150 0 274 -52t233 -159q106 -107 158 -232q53 -128 53 -275q0 -148 -53 -275q-52 -126 -158 -232q-105 -104 -233 -157q-128 -52 -274 -52q-148 0 -275 53q-127 51 -232 156q-107 107 -156 233 q-53 123 -53 274zM161 717q0 -117 40 -214q40 -98 123 -181q78 -80 180 -122q101 -41 215 -41q113 0 213 42q100 41 181 121q82 83 122 181q43 98 43 214q0 114 -43 214q-41 97 -121 181q-81 79 -182 122q-100 42 -213 42q-114 0 -215 -42q-103 -44 -180 -122 q-82 -83 -123 -181q-40 -99 -40 -214zM307 1456q65 120 173 165q73 21 198 -31q87 -46 226.5 -85.5t226.5 70.5v162q-78 -90 -166.5 -93t-243.5 71q-128 69 -244.5 52.5t-169.5 -115.5v-196z" />
<glyph unicode="&#xf6;" horiz-adv-x="1513" d="M2 715q0 150 52 274q50 124 157 234q107 106 232 158q123 52 275 52q150 0 274 -52t233 -159q106 -107 158 -232q53 -128 53 -275q0 -148 -53 -275q-52 -126 -158 -232q-105 -104 -233 -157q-128 -52 -274 -52q-148 0 -275 53q-127 51 -232 156q-107 107 -156 233 q-53 123 -53 274zM160 717q0 -117 40 -214q40 -98 123 -181q78 -80 180 -122q101 -41 215 -41q113 0 213 42q100 41 181 121q82 83 122 181q43 98 43 214q0 114 -43 214q-41 97 -121 181q-81 79 -182 122q-100 42 -213 42q-114 0 -215 -42q-103 -44 -180 -122 q-82 -83 -123 -181q-40 -99 -40 -214zM408 1568q0 -34 22 -56t53 -22q33 0 56 23q23 22 23 55t-22 55t-53 22q-33 0 -56 -22q-23 -23 -23 -55zM873 1568q0 -34 22 -56t54 -22t55 23q23 22 23 55t-22 55t-53 22q-33 0 -56 -22q-23 -23 -23 -55z" />
<glyph unicode="&#xf7;" />
<glyph unicode="&#xf8;" horiz-adv-x="1513" d="M1 715q0 150 52 274q50 124 157 234q107 106 232 158q123 52 275 52q150 0 274 -52t233 -159q106 -107 158 -232q53 -128 53 -275q0 -148 -53 -275q-52 -126 -158 -232q-105 -104 -233 -157q-128 -52 -274 -52q-148 0 -275 53q-127 51 -232 156q-107 107 -156 233 q-53 123 -53 274zM159 717q0 -117 40 -214q40 -98 123 -181q78 -80 180 -122q101 -41 215 -41q113 0 213 42q100 41 181 121q82 83 122 181q43 98 43 214q0 114 -43 214q-41 97 -121 181q-81 79 -182 122q-100 42 -213 42q-114 0 -215 -42q-103 -44 -180 -122 q-82 -83 -123 -181q-40 -99 -40 -214zM206 -100l844 1664h180l-844 -1664h-180z" />
<glyph unicode="&#xf9;" horiz-adv-x="1035" d="M1 1435h158l1 -927q6 -146 76.5 -227t156 -107.5t186 0.5t160 117.5t63.5 216.5l-1 927h158l1 -928q-7 -124 -49 -217t-123 -167t-193 -109.5t-235.5 3.5t-196.5 108.5t-117 167t-44 214.5zM200 1809h179l217 -309l-179 -1z" />
<glyph unicode="&#xfa;" horiz-adv-x="1035" d="M1 1435h158l1 -927q6 -146 76.5 -227t156 -107.5t186 0.5t160 117.5t63.5 216.5l-1 927h158l1 -928q-7 -124 -49 -217t-123 -167t-193 -109.5t-235.5 3.5t-196.5 108.5t-117 167t-44 214.5zM380 1500l217 309h179l-217 -310z" />
<glyph unicode="&#xfb;" horiz-adv-x="1035" d="M1 1435h158l1 -927q6 -146 76.5 -227t156 -107.5t186 0.5t160 117.5t63.5 216.5l-1 927h158l1 -928q-7 -124 -49 -217t-123 -167t-193 -109.5t-235.5 3.5t-196.5 108.5t-117 167t-44 214.5zM284 1499l194 347h54l192 -347h-126l-96 169l-94 -169h-124z" />
<glyph unicode="&#xfc;" horiz-adv-x="1035" d="M1 1435h158l1 -927q6 -146 76.5 -227t156 -107.5t186 0.5t160 117.5t63.5 216.5l-1 927h158l1 -928q-7 -124 -49 -217t-123 -167t-193 -109.5t-235.5 3.5t-196.5 108.5t-117 167t-44 214.5zM178 1568q0 -34 22 -56t53 -22q33 0 56 23q23 22 23 55t-22 55t-53 22 q-33 0 -56 -22q-23 -23 -23 -55zM643 1568q0 -34 22 -56t54 -22t55 23q23 22 23 55t-22 55t-53 22q-33 0 -56 -22q-23 -23 -23 -55z" />
<glyph unicode="&#xfd;" horiz-adv-x="1130" d="M3 1438h192l341 -671l356 671h181l-446 -841v-598h-179v597zM460 1500l217 309h179l-217 -310z" />
<glyph unicode="&#xfe;" horiz-adv-x="1010" />
<glyph unicode="&#xff;" horiz-adv-x="1126" d="M3 1438h192l341 -671l356 671h181l-446 -841v-598h-179v597zM228 1568q0 -34 22 -56t53 -22q33 0 56 23q23 22 23 55t-22 55t-53 22q-33 0 -56 -22q-23 -23 -23 -55zM693 1568q0 -34 22 -56t54 -22t55 23q23 22 23 55t-22 55t-53 22q-33 0 -56 -22q-23 -23 -23 -55z" />
<glyph unicode="&#x2c6;" horiz-adv-x="621" />
<glyph unicode="&#x2dc;" horiz-adv-x="970" />
<glyph unicode="&#x2000;" horiz-adv-x="923" />
<glyph unicode="&#x2001;" horiz-adv-x="1846" />
<glyph unicode="&#x2002;" horiz-adv-x="923" />
<glyph unicode="&#x2003;" horiz-adv-x="1846" />
<glyph unicode="&#x2004;" horiz-adv-x="615" />
<glyph unicode="&#x2005;" horiz-adv-x="461" />
<glyph unicode="&#x2006;" horiz-adv-x="307" />
<glyph unicode="&#x2007;" horiz-adv-x="307" />
<glyph unicode="&#x2008;" horiz-adv-x="230" />
<glyph unicode="&#x2009;" horiz-adv-x="369" />
<glyph unicode="&#x200a;" horiz-adv-x="102" />
<glyph unicode="&#x2010;" horiz-adv-x="645" />
<glyph unicode="&#x2011;" horiz-adv-x="645" />
<glyph unicode="&#x2012;" horiz-adv-x="645" />
<glyph unicode="&#x2013;" horiz-adv-x="772" />
<glyph unicode="&#x2014;" horiz-adv-x="1082" />
<glyph unicode="&#x2018;" horiz-adv-x="366" />
<glyph unicode="&#x2019;" horiz-adv-x="366" />
<glyph unicode="&#x201a;" horiz-adv-x="557" />
<glyph unicode="&#x201c;" horiz-adv-x="601" />
<glyph unicode="&#x201d;" horiz-adv-x="601" />
<glyph unicode="&#x201e;" horiz-adv-x="910" />
<glyph unicode="&#x2022;" horiz-adv-x="1024" />
<glyph unicode="&#x2026;" horiz-adv-x="2048" />
<glyph unicode="&#x202f;" horiz-adv-x="369" />
<glyph unicode="&#x2039;" horiz-adv-x="631" />
<glyph unicode="&#x203a;" horiz-adv-x="631" />
<glyph unicode="&#x205f;" horiz-adv-x="461" />
<glyph unicode="&#x20ac;" horiz-adv-x="1276" d="M94 555v128h115q-6 52 2 95l-111 1v136h128q24 84 72 166q45 76 116 148q103 104 230 158q94 38 197 48h76q73 0 144 -13q68 -14 133 -42l-66 -149q-100 40 -209 40q-113 0 -210 -40q-96 -40 -177 -121q-34 -34 -58 -68q-25 -33 -45 -74l-32 -53h679l-39 -137h-660 q-12 -43 -2 -95h676l-30 -128h-629q37 -97 69 -139.5t71 -80.5q81 -81 177 -120q99 -41 210 -41t211 41l65 -150q-68 -30 -133 -42q-68 -14 -144 -14q-146 0 -274 52q-128 53 -231 157q-73 73 -118 153q-48 83 -73 184h-130z" />
<glyph unicode="&#x2122;" horiz-adv-x="1497" />
<glyph unicode="&#x25fc;" horiz-adv-x="1435" d="M0 0v1435h1435v-1435h-1435z" />
</font>
</defs>
</svg>
